<svg width="109" height="109" viewBox="0 0 109 109" fill="none" xmlns="http://www.w3.org/2000/svg">
<path d="M50.6022 12.6593C61.4789 11.736 72.2846 15.1106 80.7027 22.0597L80.021 14.2681C79.9247 13.1672 80.2697 12.0732 80.98 11.2267C81.6903 10.3801 82.7078 9.85045 83.8087 9.75413C84.9096 9.65782 86.0036 10.0028 86.8501 10.7131C87.6967 11.4234 88.2263 12.4409 88.3227 13.5418L89.9568 32.2204C90.0047 32.7656 89.9446 33.3148 89.7801 33.8367C89.6157 34.3586 89.3499 34.843 88.9982 35.2622C88.6465 35.6814 88.2156 36.0271 87.7302 36.2797C87.2447 36.5324 86.7143 36.6869 86.1692 36.7344L67.4905 38.3686C66.3896 38.4649 65.2956 38.1199 64.4491 37.4096C63.6025 36.6993 63.0729 35.6818 62.9765 34.5809C62.8802 33.4801 63.2252 32.386 63.9355 31.5395C64.6458 30.693 65.6633 30.1633 66.7642 30.067L76.2345 29.2384C71.2533 24.8115 65.0569 21.9835 58.4489 21.1211C51.8409 20.2586 45.1262 21.4016 39.1756 24.4017C33.2251 27.4018 28.3133 32.1207 25.0772 37.9463C21.8411 43.7718 20.4301 50.4354 21.0272 57.0726C21.1235 58.1735 20.7786 59.2675 20.0682 60.1141C19.3579 60.9606 18.3404 61.4903 17.2395 61.5866C16.1387 61.6829 15.0446 61.338 14.1981 60.6276C13.3516 59.9173 12.8219 58.8998 12.7256 57.7989C11.7754 46.7931 15.2295 35.8597 22.3303 27.3973C29.431 18.935 39.5985 13.6347 50.6022 12.6593V12.6593ZM22.2982 71.6005L40.9769 69.9663C42.0777 69.87 43.1718 70.2149 44.0183 70.9253C44.8648 71.6356 45.3945 72.6531 45.4908 73.754C45.5871 74.8548 45.2422 75.9489 44.5319 76.7954C43.8216 77.6419 42.804 78.1716 41.7032 78.2679L32.2328 79.0965C37.2141 83.5233 43.4105 86.3514 50.0185 87.2138C56.6265 88.0763 63.3412 86.9333 69.2917 83.9332C75.2423 80.9331 80.1541 76.2142 83.3902 70.3886C86.6262 64.563 88.0372 57.8995 87.4402 51.2622C87.3439 50.1614 87.6888 49.0673 88.3991 48.2208C89.1095 47.3743 90.127 46.8446 91.2278 46.7483C92.3287 46.652 93.4227 46.9969 94.2693 47.7072C95.1158 48.4176 95.6455 49.4351 95.7418 50.5359C96.4684 58.7142 94.7593 66.9247 90.8296 74.1337C86.8999 81.3428 80.9254 87.2281 73.6581 91.049C66.3908 94.8698 58.1555 96.4552 49.9891 95.6058C41.8227 94.7563 34.09 91.5098 27.7647 86.2751L28.4464 94.0668C28.5427 95.1676 28.1977 96.2617 27.4874 97.1082C26.7771 97.9547 25.7596 98.4844 24.6587 98.5807C23.5578 98.6771 22.4638 98.3321 21.6173 97.6218C20.7707 96.9115 20.241 95.8939 20.1447 94.7931L18.5106 76.1144C18.4627 75.5693 18.5228 75.0201 18.6872 74.4982C18.8517 73.9763 19.1174 73.4919 19.4692 73.0727C19.8209 72.6535 20.2518 72.3077 20.7372 72.0551C21.2226 71.8025 21.7531 71.648 22.2982 71.6005V71.6005Z" fill="#52F69E"/>
</svg>
